<mxfile host="www.draw.io" modified="2020-01-17T09:02:16.761Z" agent="Mozilla/5.0 (Windows NT 10.0; Win64; x64) AppleWebKit/537.36 (KHTML, like Gecko) Chrome/79.0.3945.117 Safari/537.36 OPR/66.0.3515.36" etag="B_oQebbF421hmWBbCqM1" version="12.5.5" type="github">
  <diagram id="fozJ2uBxFglxSakZYLrb" name="Page-1">
    <mxGraphModel dx="1382" dy="795" grid="1" gridSize="10" guides="1" tooltips="1" connect="1" arrows="1" fold="1" page="1" pageScale="1" pageWidth="2000" pageHeight="600" background="none" math="0" shadow="0">
      <root>
        <mxCell id="0"/>
        <mxCell id="1" parent="0"/>
        <mxCell id="xJ-lUGYUrFKlf-khSyfK-44" value="" style="rounded=0;whiteSpace=wrap;html=1;strokeColor=#666666;fillColor=#f5f5f5;fontSize=11;align=center;fontColor=#333333;" parent="1" vertex="1">
          <mxGeometry x="400" y="80" width="180" height="360" as="geometry"/>
        </mxCell>
        <mxCell id="xJ-lUGYUrFKlf-khSyfK-40" value="" style="rounded=0;whiteSpace=wrap;html=1;fontSize=11;align=center;fillColor=#f5f5f5;strokeColor=#666666;fontColor=#333333;" parent="1" vertex="1">
          <mxGeometry x="40" y="80" width="320" height="360" as="geometry"/>
        </mxCell>
        <mxCell id="xJ-lUGYUrFKlf-khSyfK-12" value="" style="rounded=0;whiteSpace=wrap;html=1;align=center;fillColor=#dae8fc;strokeColor=#6c8ebf;" parent="1" vertex="1">
          <mxGeometry x="50" y="90" width="140" height="100" as="geometry"/>
        </mxCell>
        <mxCell id="cRoPIz6aXzqG4CNdJphQ-14" value="SharedPCH" style="rounded=1;arcSize=10;whiteSpace=wrap;html=1;align=center;" parent="1" vertex="1">
          <mxGeometry x="410" y="90" width="160" height="80" as="geometry"/>
        </mxCell>
        <mxCell id="cRoPIz6aXzqG4CNdJphQ-15" value="Engine" style="rounded=1;arcSize=10;whiteSpace=wrap;html=1;align=center;" parent="1" vertex="1">
          <mxGeometry x="970" y="126" width="120" height="80" as="geometry"/>
        </mxCell>
        <mxCell id="cRoPIz6aXzqG4CNdJphQ-16" value="Client" style="rounded=1;arcSize=10;whiteSpace=wrap;html=1;align=center;" parent="1" vertex="1">
          <mxGeometry x="1150" y="60" width="120" height="80" as="geometry"/>
        </mxCell>
        <mxCell id="cRoPIz6aXzqG4CNdJphQ-17" value="External Dependancies" style="swimlane;fontStyle=0;childLayout=stackLayout;horizontal=1;startSize=26;fillColor=#e0e0e0;horizontalStack=0;resizeParent=1;resizeParentMax=0;resizeLast=0;collapsible=1;marginBottom=0;swimlaneFillColor=#ffffff;align=center;fontSize=14;" parent="1" vertex="1">
          <mxGeometry x="410" y="180" width="160" height="104" as="geometry"/>
        </mxCell>
        <mxCell id="cRoPIz6aXzqG4CNdJphQ-18" value="SQLite" style="text;strokeColor=none;fillColor=none;spacingLeft=4;spacingRight=4;overflow=hidden;rotatable=0;points=[[0,0.5],[1,0.5]];portConstraint=eastwest;fontSize=12;align=center;" parent="cRoPIz6aXzqG4CNdJphQ-17" vertex="1">
          <mxGeometry y="26" width="160" height="26" as="geometry"/>
        </mxCell>
        <mxCell id="cRoPIz6aXzqG4CNdJphQ-19" value="Row 2" style="text;strokeColor=none;fillColor=none;spacingLeft=4;spacingRight=4;overflow=hidden;rotatable=0;points=[[0,0.5],[1,0.5]];portConstraint=eastwest;fontSize=12;align=center;" parent="cRoPIz6aXzqG4CNdJphQ-17" vertex="1">
          <mxGeometry y="52" width="160" height="26" as="geometry"/>
        </mxCell>
        <mxCell id="cRoPIz6aXzqG4CNdJphQ-20" value="Row 3" style="text;strokeColor=none;fillColor=none;spacingLeft=4;spacingRight=4;overflow=hidden;rotatable=0;points=[[0,0.5],[1,0.5]];portConstraint=eastwest;fontSize=12;align=center;" parent="cRoPIz6aXzqG4CNdJphQ-17" vertex="1">
          <mxGeometry y="78" width="160" height="26" as="geometry"/>
        </mxCell>
        <mxCell id="cRoPIz6aXzqG4CNdJphQ-22" value="OpenGL&lt;br&gt;Module" style="rounded=1;arcSize=10;whiteSpace=wrap;html=1;align=center;" parent="1" vertex="1">
          <mxGeometry x="1090" y="236" width="120" height="80" as="geometry"/>
        </mxCell>
        <mxCell id="cRoPIz6aXzqG4CNdJphQ-23" value="Python&lt;br&gt;Scripting&lt;br&gt;Module" style="rounded=1;arcSize=10;whiteSpace=wrap;html=1;align=center;" parent="1" vertex="1">
          <mxGeometry x="1340" y="216" width="120" height="80" as="geometry"/>
        </mxCell>
        <mxCell id="xJ-lUGYUrFKlf-khSyfK-2" value="" style="endArrow=classic;html=1;" parent="1" edge="1">
          <mxGeometry width="50" height="50" relative="1" as="geometry">
            <mxPoint x="80" y="100" as="sourcePoint"/>
            <mxPoint x="80" y="180" as="targetPoint"/>
          </mxGeometry>
        </mxCell>
        <mxCell id="xJ-lUGYUrFKlf-khSyfK-3" value="Dependancy" style="text;html=1;strokeColor=none;fillColor=none;align=center;verticalAlign=middle;whiteSpace=wrap;rounded=0;fontSize=11;" parent="1" vertex="1">
          <mxGeometry x="120" y="130" width="70" height="20" as="geometry"/>
        </mxCell>
        <mxCell id="xJ-lUGYUrFKlf-khSyfK-13" value="" style="shape=link;html=1;width=-2.3809523809523814;" parent="1" edge="1">
          <mxGeometry width="50" height="50" relative="1" as="geometry">
            <mxPoint x="120" y="190" as="sourcePoint"/>
            <mxPoint x="120" y="90" as="targetPoint"/>
          </mxGeometry>
        </mxCell>
        <mxCell id="xJ-lUGYUrFKlf-khSyfK-14" value="" style="rounded=0;whiteSpace=wrap;html=1;align=center;fillColor=#dae8fc;strokeColor=#6c8ebf;" parent="1" vertex="1">
          <mxGeometry x="50" y="210" width="140" height="100" as="geometry"/>
        </mxCell>
        <mxCell id="xJ-lUGYUrFKlf-khSyfK-15" value="" style="shape=link;html=1;entryX=0.5;entryY=0;entryDx=0;entryDy=0;exitX=0.5;exitY=1;exitDx=0;exitDy=0;width=-2.3809523809523814;" parent="1" source="xJ-lUGYUrFKlf-khSyfK-14" target="xJ-lUGYUrFKlf-khSyfK-14" edge="1">
          <mxGeometry width="50" height="50" relative="1" as="geometry">
            <mxPoint x="40" y="610" as="sourcePoint"/>
            <mxPoint x="90" y="560" as="targetPoint"/>
          </mxGeometry>
        </mxCell>
        <mxCell id="xJ-lUGYUrFKlf-khSyfK-19" value="" style="endArrow=classic;html=1;fillColor=#f8cecc;strokeColor=#b85450;comic=0;rounded=0;strokeWidth=3;" parent="1" edge="1">
          <mxGeometry width="50" height="50" relative="1" as="geometry">
            <mxPoint x="80" y="220" as="sourcePoint"/>
            <mxPoint x="80" y="300" as="targetPoint"/>
          </mxGeometry>
        </mxCell>
        <mxCell id="xJ-lUGYUrFKlf-khSyfK-20" value="API" style="text;html=1;strokeColor=none;fillColor=none;align=center;verticalAlign=middle;whiteSpace=wrap;rounded=0;fontSize=11;" parent="1" vertex="1">
          <mxGeometry x="120" y="250" width="70" height="20" as="geometry"/>
        </mxCell>
        <mxCell id="xJ-lUGYUrFKlf-khSyfK-21" value="" style="rounded=0;whiteSpace=wrap;html=1;align=center;fillColor=#fff2cc;strokeColor=#d6b656;" parent="1" vertex="1">
          <mxGeometry x="210" y="90" width="140" height="100" as="geometry"/>
        </mxCell>
        <mxCell id="xJ-lUGYUrFKlf-khSyfK-22" value="" style="shape=link;html=1;entryX=0.5;entryY=0;entryDx=0;entryDy=0;exitX=0.5;exitY=1;exitDx=0;exitDy=0;width=-2.3809523809523814;" parent="1" edge="1">
          <mxGeometry width="50" height="50" relative="1" as="geometry">
            <mxPoint x="279.52" y="190" as="sourcePoint"/>
            <mxPoint x="279.52" y="90" as="targetPoint"/>
          </mxGeometry>
        </mxCell>
        <mxCell id="xJ-lUGYUrFKlf-khSyfK-23" value="" style="rounded=1;whiteSpace=wrap;html=1;gradientColor=none;fontSize=11;align=center;" parent="1" vertex="1">
          <mxGeometry x="220" y="100" width="50" height="80" as="geometry"/>
        </mxCell>
        <mxCell id="xJ-lUGYUrFKlf-khSyfK-24" value="Project" style="text;html=1;strokeColor=none;fillColor=none;align=center;verticalAlign=middle;whiteSpace=wrap;rounded=0;fontSize=11;" parent="1" vertex="1">
          <mxGeometry x="280" y="130" width="70" height="20" as="geometry"/>
        </mxCell>
        <mxCell id="xJ-lUGYUrFKlf-khSyfK-25" value="" style="rounded=0;whiteSpace=wrap;html=1;align=center;fillColor=#fff2cc;strokeColor=#d6b656;" parent="1" vertex="1">
          <mxGeometry x="210" y="210" width="140" height="100" as="geometry"/>
        </mxCell>
        <mxCell id="xJ-lUGYUrFKlf-khSyfK-26" value="" style="shape=link;html=1;entryX=0.5;entryY=0;entryDx=0;entryDy=0;exitX=0.5;exitY=1;exitDx=0;exitDy=0;width=-2.3809523809523814;" parent="1" edge="1">
          <mxGeometry width="50" height="50" relative="1" as="geometry">
            <mxPoint x="279.52" y="310" as="sourcePoint"/>
            <mxPoint x="279.52" y="210" as="targetPoint"/>
          </mxGeometry>
        </mxCell>
        <mxCell id="xJ-lUGYUrFKlf-khSyfK-27" value="" style="ellipse;whiteSpace=wrap;html=1;gradientColor=none;fontSize=11;align=center;" parent="1" vertex="1">
          <mxGeometry x="220" y="220" width="50" height="80" as="geometry"/>
        </mxCell>
        <mxCell id="xJ-lUGYUrFKlf-khSyfK-28" value="Group&lt;br&gt;of&lt;br&gt;Classes,&lt;br&gt;Functions" style="text;html=1;strokeColor=none;fillColor=none;align=center;verticalAlign=middle;whiteSpace=wrap;rounded=0;fontSize=11;" parent="1" vertex="1">
          <mxGeometry x="280" y="250" width="70" height="20" as="geometry"/>
        </mxCell>
        <mxCell id="xJ-lUGYUrFKlf-khSyfK-30" value="" style="rounded=0;whiteSpace=wrap;html=1;align=center;fillColor=#fff2cc;strokeColor=#d6b656;" parent="1" vertex="1">
          <mxGeometry x="210" y="330" width="140" height="100" as="geometry"/>
        </mxCell>
        <mxCell id="xJ-lUGYUrFKlf-khSyfK-31" value="" style="shape=link;html=1;entryX=0.5;entryY=0;entryDx=0;entryDy=0;exitX=0.5;exitY=1;exitDx=0;exitDy=0;width=-2.3809523809523814;" parent="1" edge="1">
          <mxGeometry width="50" height="50" relative="1" as="geometry">
            <mxPoint x="279.52" y="430" as="sourcePoint"/>
            <mxPoint x="279.52" y="330" as="targetPoint"/>
          </mxGeometry>
        </mxCell>
        <mxCell id="xJ-lUGYUrFKlf-khSyfK-32" value="" style="shape=cylinder;whiteSpace=wrap;html=1;boundedLbl=1;backgroundOutline=1;gradientColor=none;fontSize=11;align=center;" parent="1" vertex="1">
          <mxGeometry x="220" y="340" width="50" height="80" as="geometry"/>
        </mxCell>
        <mxCell id="xJ-lUGYUrFKlf-khSyfK-33" value="Database" style="text;html=1;strokeColor=none;fillColor=none;align=center;verticalAlign=middle;whiteSpace=wrap;rounded=0;fontSize=11;" parent="1" vertex="1">
          <mxGeometry x="280" y="370" width="70" height="20" as="geometry"/>
        </mxCell>
        <mxCell id="xJ-lUGYUrFKlf-khSyfK-35" value="" style="rounded=0;whiteSpace=wrap;html=1;align=center;fillColor=#dae8fc;strokeColor=#6c8ebf;" parent="1" vertex="1">
          <mxGeometry x="50" y="330" width="140" height="100" as="geometry"/>
        </mxCell>
        <mxCell id="xJ-lUGYUrFKlf-khSyfK-36" value="" style="shape=link;html=1;entryX=0.5;entryY=0;entryDx=0;entryDy=0;exitX=0.5;exitY=1;exitDx=0;exitDy=0;width=-2.3809523809523814;" parent="1" edge="1">
          <mxGeometry width="50" height="50" relative="1" as="geometry">
            <mxPoint x="119.51999999999998" y="430" as="sourcePoint"/>
            <mxPoint x="119.51999999999998" y="330" as="targetPoint"/>
          </mxGeometry>
        </mxCell>
        <mxCell id="xJ-lUGYUrFKlf-khSyfK-37" value="" style="endArrow=classic;html=1;fillColor=#f8cecc;strokeColor=#0D40B8;comic=0;rounded=0;strokeWidth=3;" parent="1" edge="1">
          <mxGeometry width="50" height="50" relative="1" as="geometry">
            <mxPoint x="80" y="340" as="sourcePoint"/>
            <mxPoint x="80" y="420" as="targetPoint"/>
          </mxGeometry>
        </mxCell>
        <mxCell id="xJ-lUGYUrFKlf-khSyfK-38" value="Calls" style="text;html=1;strokeColor=none;fillColor=none;align=center;verticalAlign=middle;whiteSpace=wrap;rounded=0;fontSize=11;" parent="1" vertex="1">
          <mxGeometry x="120" y="370" width="70" height="20" as="geometry"/>
        </mxCell>
        <mxCell id="xJ-lUGYUrFKlf-khSyfK-42" value="Markings" style="rounded=0;whiteSpace=wrap;html=1;gradientColor=none;fontSize=11;align=center;fillColor=#808080;" parent="1" vertex="1">
          <mxGeometry x="40" y="40" width="320" height="40" as="geometry"/>
        </mxCell>
        <mxCell id="xJ-lUGYUrFKlf-khSyfK-45" value="Dependancies" style="rounded=0;whiteSpace=wrap;html=1;gradientColor=none;fontSize=11;align=center;fillColor=#808080;" parent="1" vertex="1">
          <mxGeometry x="400" y="40" width="180" height="40" as="geometry"/>
        </mxCell>
      </root>
    </mxGraphModel>
  </diagram>
</mxfile>
